HIERARCHY
ROOT newVegas:Hips
{
	OFFSET 0.000000 96.330055 9.825774
	CHANNELS 6 Xposition Yposition Zposition Xrotation Yrotation Zrotation
	JOINT newVegas:Pelvis
	{
		OFFSET 0.000000 0.000000 0.000000
		CHANNELS 3 Xrotation Yrotation Zrotation
		JOINT newVegas:LeftUpLeg
		{
			OFFSET 18.735231 -5.666687 -4.541196
			CHANNELS 3 Xrotation Yrotation Zrotation
			JOINT newVegas:LeftLeg
			{
				OFFSET 2.165257 -31.864662 0.493051
				CHANNELS 3 Xrotation Yrotation Zrotation
				JOINT newVegas:LeftFoot
				{
					OFFSET 2.207560 -31.861769 -4.336291
					CHANNELS 3 Xrotation Yrotation Zrotation
					JOINT newVegas:LeftToeBase
					{
						OFFSET 0.942982 -26.721954 15.023476
						CHANNELS 3 Xrotation Yrotation Zrotation
						End Site
						{
							OFFSET 0.000000 30.670130 0.000000
						}
					}
				}
				JOINT newVegas:Left_PantLeg
				{
					OFFSET 1.281483 -8.977982 -1.108870
					CHANNELS 3 Xrotation Yrotation Zrotation
					End Site
					{
						OFFSET 0.000000 20.683853 0.000000
					}
				}
			}
		}
		JOINT newVegas:RightUpLeg
		{
			OFFSET -18.735231 -5.666687 -4.541196
			CHANNELS 3 Xrotation Yrotation Zrotation
			JOINT newVegas:RightLeg
			{
				OFFSET -2.167511 -31.864510 0.493069
				CHANNELS 3 Xrotation Yrotation Zrotation
				JOINT newVegas:RightFoot
				{
					OFFSET -2.205305 -31.861921 -4.336310
					CHANNELS 3 Xrotation Yrotation Zrotation
					JOINT newVegas:RightToeBase
					{
						OFFSET -0.942982 -26.721954 15.023476
						CHANNELS 3 Xrotation Yrotation Zrotation
						End Site
						{
							OFFSET 0.000000 30.670130 0.000000
						}
					}
				}
				JOINT newVegas:Right_PantLeg
				{
					OFFSET -1.279257 -8.978161 -1.108887
					CHANNELS 3 Xrotation Yrotation Zrotation
					End Site
					{
						OFFSET 0.000000 20.683781 0.000000
					}
				}
			}
		}
	}
	JOINT newVegas:Spine
	{
		OFFSET 0.000000 10.200043 -0.299546
		CHANNELS 3 Xrotation Yrotation Zrotation
		JOINT newVegas:Spine1
		{
			OFFSET 0.000000 11.900047 -1.516603
			CHANNELS 3 Xrotation Yrotation Zrotation
			JOINT newVegas:Spine2
			{
				OFFSET 0.000000 13.600052 -2.842519
				CHANNELS 3 Xrotation Yrotation Zrotation
				JOINT newVegas:Neck
				{
					OFFSET 0.000000 9.624100 -2.890091
					CHANNELS 3 Xrotation Yrotation Zrotation
					JOINT newVegas:Head
					{
						OFFSET 0.000000 14.068771 -1.351861
						CHANNELS 3 Xrotation Yrotation Zrotation
						JOINT newVegas:Hair_Back
						{
							OFFSET 0.000000 3.231888 -17.524775
							CHANNELS 3 Xrotation Yrotation Zrotation
							End Site
							{
								OFFSET 0.000000 19.849899 0.000000
							}
						}
						JOINT newVegas:Hair_Front
						{
							OFFSET 0.000000 31.260452 4.573765
							CHANNELS 3 Xrotation Yrotation Zrotation
							JOINT newVegas:Hair_Front1
							{
								OFFSET -0.000000 2.284073 11.993284
								CHANNELS 3 Xrotation Yrotation Zrotation
								JOINT newVegas:Hair_Front2
								{
									OFFSET -0.000000 2.284073 11.993282
									CHANNELS 3 Xrotation Yrotation Zrotation
									End Site
									{
										OFFSET 0.000000 12.208847 0.000000
									}
								}
							}
						}
						JOINT newVegas:Jowel
						{
							OFFSET 0.000000 -7.458237 6.864121
							CHANNELS 3 Xrotation Yrotation Zrotation
							End Site
							{
								OFFSET 0.000000 19.849899 0.000000
							}
						}
					}
				}
				JOINT newVegas:LeftShoulder
				{
					OFFSET 15.263037 10.923431 -0.547705
					CHANNELS 3 Xrotation Yrotation Zrotation
					JOINT newVegas:LeftArm
					{
						OFFSET 25.438639 -2.830658 -13.032501
						CHANNELS 3 Xrotation Yrotation Zrotation
						JOINT newVegas:LeftForeArm
						{
							OFFSET 29.593842 0.000000 -4.673203
							CHANNELS 3 Xrotation Yrotation Zrotation
							JOINT newVegas:LeftHand
							{
								OFFSET 27.832886 0.000000 0.954267
								CHANNELS 3 Xrotation Yrotation Zrotation
								JOINT newVegas:LeftHandThumb1
								{
									OFFSET 4.767456 -2.676666 6.397403
									CHANNELS 3 Xrotation Yrotation Zrotation
									JOINT newVegas:LeftHandThumb2
									{
										OFFSET 6.625809 -0.223526 2.471421
										CHANNELS 3 Xrotation Yrotation Zrotation
										JOINT newVegas:LeftHandThumb3
										{
											OFFSET 6.481201 0.059357 1.536795
											CHANNELS 3 Xrotation Yrotation Zrotation
											End Site
											{
												OFFSET 0.000000 6.661179 0.000000
											}
										}
									}
								}
								JOINT newVegas:LeftHandIndex1
								{
									OFFSET 18.761932 0.178406 4.531118
									CHANNELS 3 Xrotation Yrotation Zrotation
									JOINT newVegas:LeftHandIndex2
									{
										OFFSET 3.171219 -0.350479 0.097670
										CHANNELS 3 Xrotation Yrotation Zrotation
										JOINT newVegas:LeftHandIndex3
										{
											OFFSET 3.807625 -0.034592 0.457391
											CHANNELS 3 Xrotation Yrotation Zrotation
											End Site
											{
												OFFSET 0.000000 3.835159 0.000000
											}
										}
									}
								}
								JOINT newVegas:LeftHandMiddle1
								{
									OFFSET 18.461426 0.243439 -0.695649
									CHANNELS 3 Xrotation Yrotation Zrotation
									JOINT newVegas:LeftHandMiddle2
									{
										OFFSET 3.308960 -0.304459 -0.112251
										CHANNELS 3 Xrotation Yrotation Zrotation
										JOINT newVegas:LeftHandMiddle3
										{
											OFFSET 4.584320 0.057678 -0.330443
											CHANNELS 3 Xrotation Yrotation Zrotation
											End Site
											{
												OFFSET 0.000000 4.596573 0.000000
											}
										}
									}
								}
								JOINT newVegas:LeftHandRing1
								{
									OFFSET 17.563904 -0.015564 -4.860666
									CHANNELS 3 Xrotation Yrotation Zrotation
									JOINT newVegas:LeftHandRing2
									{
										OFFSET 2.582436 -0.710159 -0.544994
										CHANNELS 3 Xrotation Yrotation Zrotation
										JOINT newVegas:LeftHandRing3
										{
											OFFSET 3.050346 0.119141 -0.884829
											CHANNELS 3 Xrotation Yrotation Zrotation
											End Site
											{
												OFFSET 0.000000 3.178314 0.000000
											}
										}
									}
								}
								JOINT newVegas:LeftHandPinky1
								{
									OFFSET 15.713013 -1.058273 -8.049927
									CHANNELS 3 Xrotation Yrotation Zrotation
									JOINT newVegas:LeftHandPinky2
									{
										OFFSET 2.262558 -0.308899 -1.109793
										CHANNELS 3 Xrotation Yrotation Zrotation
										JOINT newVegas:LeftHandPinky3
										{
											OFFSET 2.240669 -0.150864 -1.296448
											CHANNELS 3 Xrotation Yrotation Zrotation
											End Site
											{
												OFFSET 0.000000 2.593094 0.000000
											}
										}
									}
								}
							}
							JOINT newVegas:Left_Sleeve
							{
								OFFSET 0.247482 -0.649780 0.586459
								CHANNELS 3 Xrotation Yrotation Zrotation
								End Site
								{
									OFFSET 0.000000 15.991226 0.000000
								}
							}
							JOINT newVegas:Left_CapeC
							{
								OFFSET 15.944374 -8.608810 -6.393338
								CHANNELS 3 Xrotation Yrotation Zrotation
								JOINT newVegas:Left_CapeC1
								{
									OFFSET 0.000000 -8.688515 0.000000
									CHANNELS 3 Xrotation Yrotation Zrotation
									End Site
									{
										OFFSET 0.000000 8.688515 0.000000
									}
								}
							}
						}
						JOINT newVegas:Left_CapeB
						{
							OFFSET 24.694458 -8.608810 -11.066542
							CHANNELS 3 Xrotation Yrotation Zrotation
							JOINT newVegas:Left_CapeB1
							{
								OFFSET 0.000008 -8.688515 0.000000
								CHANNELS 3 Xrotation Yrotation Zrotation
								End Site
								{
									OFFSET 0.000000 8.688515 0.000000
								}
							}
						}
						JOINT newVegas:Left_CapeA
						{
							OFFSET 3.431450 -8.608810 -11.066542
							CHANNELS 3 Xrotation Yrotation Zrotation
							JOINT newVegas:Left_CapeA1
							{
								OFFSET 0.000000 -8.688515 0.000000
								CHANNELS 3 Xrotation Yrotation Zrotation
								End Site
								{
									OFFSET 0.000000 8.688515 0.000000
								}
							}
						}
					}
				}
				JOINT newVegas:RightShoulder
				{
					OFFSET -15.263037 10.923431 -0.547705
					CHANNELS 3 Xrotation Yrotation Zrotation
					JOINT newVegas:RightArm
					{
						OFFSET -25.438639 -2.830658 -13.032501
						CHANNELS 3 Xrotation Yrotation Zrotation
						JOINT newVegas:RightForeArm
						{
							OFFSET -29.593842 0.000000 -4.673203
							CHANNELS 3 Xrotation Yrotation Zrotation
							JOINT newVegas:RightHand
							{
								OFFSET -27.832886 0.000000 0.954267
								CHANNELS 3 Xrotation Yrotation Zrotation
								JOINT newVegas:RightHandThumb1
								{
									OFFSET -4.767456 -2.676666 6.397403
									CHANNELS 3 Xrotation Yrotation Zrotation
									JOINT newVegas:RightHandThumb2
									{
										OFFSET -6.625809 -0.223526 2.471421
										CHANNELS 3 Xrotation Yrotation Zrotation
										JOINT newVegas:RightHandThumb3
										{
											OFFSET -6.481201 0.059357 1.536795
											CHANNELS 3 Xrotation Yrotation Zrotation
											End Site
											{
												OFFSET 0.000000 6.661179 0.000000
											}
										}
									}
								}
								JOINT newVegas:RightHandIndex1
								{
									OFFSET -18.761932 0.178406 4.531118
									CHANNELS 3 Xrotation Yrotation Zrotation
									JOINT newVegas:RightHandIndex2
									{
										OFFSET -3.171219 -0.350479 0.097670
										CHANNELS 3 Xrotation Yrotation Zrotation
										JOINT newVegas:RightHandIndex3
										{
											OFFSET -3.807625 -0.034592 0.457391
											CHANNELS 3 Xrotation Yrotation Zrotation
											End Site
											{
												OFFSET 0.000000 3.835159 0.000000
											}
										}
									}
								}
								JOINT newVegas:RightHandMiddle1
								{
									OFFSET -18.461426 0.243439 -0.695648
									CHANNELS 3 Xrotation Yrotation Zrotation
									JOINT newVegas:RightHandMiddle2
									{
										OFFSET -3.308960 -0.304459 -0.112251
										CHANNELS 3 Xrotation Yrotation Zrotation
										JOINT newVegas:RightHandMiddle3
										{
											OFFSET -4.584320 0.057678 -0.330443
											CHANNELS 3 Xrotation Yrotation Zrotation
											End Site
											{
												OFFSET 0.000000 4.596573 0.000000
											}
										}
									}
								}
								JOINT newVegas:RightHandRing1
								{
									OFFSET -17.563904 -0.015564 -4.860666
									CHANNELS 3 Xrotation Yrotation Zrotation
									JOINT newVegas:RightHandRing2
									{
										OFFSET -2.582436 -0.710159 -0.544992
										CHANNELS 3 Xrotation Yrotation Zrotation
										JOINT newVegas:RightHandRing3
										{
											OFFSET -3.050346 0.119141 -0.884830
											CHANNELS 3 Xrotation Yrotation Zrotation
											End Site
											{
												OFFSET 0.000000 3.178329 0.000000
											}
										}
									}
								}
								JOINT newVegas:RightHandPinky1
								{
									OFFSET -15.713013 -1.058273 -8.049929
									CHANNELS 3 Xrotation Yrotation Zrotation
									JOINT newVegas:RightHandPinky2
									{
										OFFSET -2.262558 -0.308899 -1.109791
										CHANNELS 3 Xrotation Yrotation Zrotation
										JOINT newVegas:RightHandPinky3
										{
											OFFSET -2.240669 -0.150864 -1.296448
											CHANNELS 3 Xrotation Yrotation Zrotation
											End Site
											{
												OFFSET 0.000000 2.593094 0.000000
											}
										}
									}
								}
							}
							JOINT newVegas:Right_CapeC
							{
								OFFSET -15.944374 -8.608810 -6.393338
								CHANNELS 3 Xrotation Yrotation Zrotation
								JOINT newVegas:Right_CapeC1
								{
									OFFSET 0.000000 -8.688515 0.000000
									CHANNELS 3 Xrotation Yrotation Zrotation
									End Site
									{
										OFFSET 0.000000 8.688515 0.000000
									}
								}
							}
							JOINT newVegas:Right_Sleeve
							{
								OFFSET -0.247482 -0.649963 0.586505
								CHANNELS 3 Xrotation Yrotation Zrotation
								End Site
								{
									OFFSET 0.000000 15.991287 0.000000
								}
							}
						}
						JOINT newVegas:Right_CapeA
						{
							OFFSET -3.431450 -8.608810 -11.066542
							CHANNELS 3 Xrotation Yrotation Zrotation
							JOINT newVegas:Right_CapeA1
							{
								OFFSET 0.000000 -8.688515 0.000000
								CHANNELS 3 Xrotation Yrotation Zrotation
								End Site
								{
									OFFSET 0.000000 8.688515 0.000000
								}
							}
						}
						JOINT newVegas:Right_CapeB
						{
							OFFSET -24.694321 -8.608810 -11.066542
							CHANNELS 3 Xrotation Yrotation Zrotation
							JOINT newVegas:Right_CapeB1
							{
								OFFSET -0.000015 -8.688515 0.000002
								CHANNELS 3 Xrotation Yrotation Zrotation
								End Site
								{
									OFFSET 0.000000 8.688515 0.000000
								}
							}
						}
					}
				}
				JOINT newVegas:Left_Collar
				{
					OFFSET 18.625118 8.655487 8.828113
					CHANNELS 3 Xrotation Yrotation Zrotation
					JOINT newVegas:Left_Collar1
					{
						OFFSET 14.783401 10.540359 -1.259481
						CHANNELS 3 Xrotation Yrotation Zrotation
						End Site
						{
							OFFSET 0.000000 18.199844 0.000000
						}
					}
				}
				JOINT newVegas:Collar_Back
				{
					OFFSET 0.000000 15.630692 -20.132616
					CHANNELS 3 Xrotation Yrotation Zrotation
					End Site
					{
						OFFSET 0.000000 22.523010 0.000000
					}
				}
				JOINT newVegas:Left_Peck
				{
					OFFSET 17.239555 -5.132629 25.482586
					CHANNELS 3 Xrotation Yrotation Zrotation
					End Site
					{
						OFFSET 0.000000 22.523026 0.000000
					}
				}
				JOINT newVegas:Right_Peck
				{
					OFFSET -17.239599 -5.132195 25.482594
					CHANNELS 3 Xrotation Yrotation Zrotation
					End Site
					{
						OFFSET 0.000000 22.523018 0.000000
					}
				}
				JOINT newVegas:Right_Collar
				{
					OFFSET -18.625099 8.655807 8.828094
					CHANNELS 3 Xrotation Yrotation Zrotation
					JOINT newVegas:Right_Collar1
					{
						OFFSET -14.783405 10.539993 -1.259501
						CHANNELS 3 Xrotation Yrotation Zrotation
						End Site
						{
							OFFSET 0.000000 18.199646 0.000000
						}
					}
				}
			}
		}
		JOINT newVegas:Belly
		{
			OFFSET 0.000000 -6.540390 9.014252
			CHANNELS 3 Xrotation Yrotation Zrotation
			End Site
			{
				OFFSET 0.000000 11.566666 0.000000
			}
		}
	}
	JOINT newVegas:ElvisFacialAnim_Joint
	{
		OFFSET 1.000000 -95.330055 -8.825774
		CHANNELS 3 Xrotation Yrotation Zrotation
		End Site
		{
			OFFSET 0.000000 35.315800 0.000000
		}
	}
}
MOTION
Frames: 4
Frame Time: 0.016667
-0.952280 102.289368 -0.979581 88.603509 9.761966 5.554426 0.000000 0.000001 0.000000 -24.692114 -17.126860 5.696759 27.690818 8.238146 -1.252468 22.986044 -6.842985 -18.925252 0.000001 -0.000001 0.000000 0.000000 -0.000000 -0.000001 -18.382102 -52.260984 -23.876834 6.215541 -0.189150 0.389842 24.137858 30.907231 20.374663 -0.000002 -0.000001 -0.000001 0.000000 0.000002 -0.000000 2.428542 6.306896 -3.845505 5.204489 12.461949 -7.272586 5.204477 12.461932 -7.272588 -2.760508 -0.579108 -1.393862 -2.760550 -0.579121 -1.393875 0.000000 0.000006 -0.000001 -2.760523 -0.579112 -1.393874 -2.760477 -0.579126 -1.393865 0.000001 -0.000001 0.000002 0.000000 0.000006 -0.000001 -0.946198 7.997317 -0.528382 15.017954 -51.196011 11.974751 -38.020412 -106.090289 -26.376271 34.673035 20.304004 65.717389 -39.990706 -14.842365 -52.863615 2.214894 4.950748 -0.461937 0.000002 -0.000002 0.000000 5.819626 5.160888 -56.286469 -3.458778 3.942449 -44.960342 0.000000 -0.000000 -0.000002 -2.588058 1.539260 -64.770083 -9.174676 -2.193553 -46.600700 0.000001 -0.000001 -0.000001 -9.216512 -0.362992 -48.571978 -19.372115 5.857178 -76.502722 0.000000 0.000000 0.000002 -21.836767 -5.252327 -73.792852 -19.478521 -6.068695 -37.569879 -0.000002 0.000001 0.000004 0.000000 0.000000 0.000000 0.000000 0.000000 0.000000 0.000000 0.000000 0.000000 -0.000000 0.000000 0.000001 -0.000000 0.000000 0.000000 -0.000000 0.000000 0.000001 -0.000000 0.000000 0.000001 3.795537 21.519203 -8.226351 -84.405367 30.331490 44.683326 -0.003439 13.963553 -0.003355 8.151391 0.285212 6.029407 -31.874075 14.336401 42.821441 0.473659 -3.206568 2.923537 0.000000 -0.000000 -0.000000 2.941028 0.205456 -23.740372 2.313022 -3.489939 22.997894 -0.000000 0.000003 0.000002 -0.043349 -9.784111 -20.114465 -4.183442 4.008128 28.044811 0.000001 0.000000 0.000001 -3.433386 -13.751806 -19.704006 -11.519502 4.632212 38.507517 -0.000002 -0.000002 0.000000 0.162776 1.330564 16.000920 -12.070450 8.915046 20.646610 -0.000003 0.000000 -0.000000 -0.000001 0.000002 0.000003 -0.000001 0.000002 0.000003 -0.000001 0.000002 0.000003 -0.000001 0.000000 -0.000000 -0.000001 0.000000 -0.000000 -0.000001 0.000000 -0.000000 -0.000001 0.000000 0.000000 0.000001 0.000004 -0.000001 0.000001 0.000004 -0.000000 0.000001 0.000004 -0.000001 0.000001 0.000004 -0.000001 0.000001 0.000004 -0.000001 0.000001 0.000004 -0.000001 0.000001 0.000004 -0.000000 -0.000000 0.000001 -0.000000 0.000000 0.000001 -0.000000 
-0.915565 102.285332 -1.097203 88.568149 9.835941 5.519167 -0.000000 -0.000000 0.000000 -24.481362 -17.078598 5.939533 27.369224 7.462738 -1.264290 22.777602 -6.599618 -19.647355 0.000002 -0.000000 0.000000 -0.000000 -0.000000 -0.000002 -18.446058 -52.349623 -23.977936 6.431438 -0.184428 0.397784 24.063803 30.864952 20.525962 0.000001 -0.000001 0.000001 0.000000 0.000002 -0.000000 2.424629 6.321135 -3.826243 5.197623 12.488345 -7.248141 5.197647 12.488358 -7.248148 -2.766575 -0.582025 -1.383401 -2.766557 -0.582016 -1.383411 0.000000 -0.000001 0.000000 -2.766534 -0.582034 -1.383405 -2.766575 -0.582010 -1.383402 0.000000 -0.000002 -0.000001 0.000000 -0.000001 0.000000 -0.954762 8.031872 -0.539131 15.111121 -51.432069 12.133364 -38.374513 -105.936596 -26.680172 34.648204 20.203525 65.655835 -40.086175 -14.987426 -52.911915 2.212443 4.877009 -0.422539 0.000001 0.000002 0.000001 5.726636 5.158829 -56.086136 -3.456154 3.949147 -44.892074 0.000000 0.000001 -0.000000 -2.625717 1.567827 -64.528226 -9.176416 -2.193648 -46.611690 -0.000001 0.000001 -0.000000 -9.238242 -0.325113 -48.490129 -19.373314 5.859468 -76.515262 0.000000 0.000000 0.000003 -21.864537 -5.310011 -73.519965 -19.463801 -6.074545 -37.535977 -0.000001 -0.000000 -0.000002 0.000000 0.000001 -0.000000 0.000000 0.000001 -0.000000 0.000000 0.000001 -0.000000 -0.000000 0.000000 -0.000000 -0.000000 0.000000 0.000000 -0.000000 0.000000 -0.000000 -0.000000 0.000000 -0.000000 3.828884 21.676111 -8.271120 -84.398503 30.287552 44.850488 -0.003342 14.222257 -0.003502 7.896731 0.320823 6.283149 -31.794049 14.127147 43.137924 0.473603 -3.238561 2.936253 -0.000000 -0.000000 -0.000000 2.929463 0.087913 -23.914000 2.300934 -3.498122 22.890139 -0.000002 -0.000001 0.000000 -0.041093 -9.817818 -20.212980 -4.186200 4.008911 28.062177 0.000000 0.000000 0.000002 -3.435200 -13.637428 -19.393871 -11.531548 4.631372 38.550257 0.000002 0.000000 0.000000 0.167907 1.250538 16.086448 -12.074710 8.915332 20.655573 -0.000003 -0.000001 -0.000000 -0.000001 0.000002 -0.000000 -0.000001 0.000002 -0.000000 -0.000001 0.000002 -0.000000 0.000001 -0.000001 -0.000001 0.000001 -0.000001 -0.000001 0.000001 -0.000001 -0.000001 0.000001 -0.000001 0.000000 0.000002 -0.000000 0.000001 0.000002 -0.000000 0.000000 0.000002 -0.000000 0.000001 0.000002 -0.000000 0.000001 0.000002 -0.000000 0.000001 0.000002 -0.000000 0.000001 0.000002 -0.000000 0.000000 0.000000 0.000001 -0.000000 -0.000000 -0.000000 0.000000 
-0.874532 102.280792 -1.212163 88.518111 9.935428 5.472616 -0.000000 -0.000001 -0.000000 -24.270628 -17.027711 6.184710 27.041996 6.688923 -1.275367 22.573733 -6.360297 -20.337172 0.000001 0.000000 0.000000 0.000000 0.000000 -0.000001 -18.419436 -52.375724 -24.007522 6.607096 -0.179400 0.404361 23.901197 30.822844 20.752548 0.000001 0.000002 0.000001 0.000000 0.000001 0.000000 2.423065 6.334379 -3.804769 5.194863 12.512804 -7.217790 5.194847 12.512795 -7.217778 -2.775874 -0.583897 -1.374726 -2.775902 -0.583888 -1.374726 0.000001 -0.000001 -0.000001 -2.775919 -0.584062 -1.374668 -2.775872 -0.583812 -1.374720 -0.000001 -0.000001 0.000001 0.000001 -0.000001 -0.000001 -0.964018 8.078128 -0.554944 15.207806 -51.728117 12.292142 -38.807458 -105.770288 -27.063050 34.633782 20.095306 65.576878 -40.173072 -15.118250 -52.956953 2.209957 4.801200 -0.382034 0.000001 0.000001 -0.000001 5.637297 5.154546 -55.900321 -3.453239 3.956537 -44.816529 -0.000002 0.000000 -0.000002 -2.662859 1.595841 -64.288145 -9.177070 -2.193670 -46.615696 0.000000 0.000000 0.000002 -9.259868 -0.287890 -48.402115 -19.373996 5.860762 -76.522345 0.000000 -0.000000 -0.000001 -21.884532 -5.365707 -73.259769 -19.451394 -6.079475 -37.507393 -0.000001 0.000002 -0.000000 0.000000 0.000002 -0.000000 0.000000 0.000002 -0.000000 0.000000 0.000002 -0.000000 -0.000000 -0.000000 -0.000001 -0.000000 -0.000000 -0.000001 -0.000000 -0.000000 -0.000001 -0.000000 -0.000000 -0.000001 3.867172 21.852227 -8.327413 -84.398865 30.243873 45.041853 -0.003192 14.497713 -0.003691 7.659365 0.358168 6.548523 -31.713586 13.939228 43.419953 0.473548 -3.270564 2.948972 0.000001 0.000000 -0.000000 2.917202 -0.015980 -24.061346 2.290075 -3.511272 22.754598 -0.000000 -0.000002 0.000000 -0.033627 -9.841065 -20.301462 -4.190048 4.010147 28.085408 0.000002 -0.000001 -0.000001 -3.437285 -13.520464 -19.087985 -11.544279 4.630480 38.595538 -0.000003 0.000001 0.000000 0.177858 1.161102 16.152873 -12.067327 8.915246 20.640241 -0.000000 -0.000000 0.000000 0.000000 -0.000001 0.000000 0.000000 -0.000001 0.000000 0.000000 -0.000001 0.000000 0.000000 0.000003 0.000000 0.000000 0.000003 0.000000 0.000000 0.000003 0.000000 0.000000 0.000003 0.000001 0.000000 0.000001 0.000001 0.000000 0.000001 0.000000 0.000000 0.000001 0.000001 0.000000 0.000001 0.000001 0.000000 0.000001 0.000001 0.000000 0.000001 0.000001 0.000000 0.000001 0.000000 -0.000000 0.000001 0.000000 -0.000000 -0.000001 -0.000000 
-0.830324 102.276031 -1.329485 88.446701 10.059186 5.415338 -0.000000 0.000000 0.000000 -24.056678 -16.981821 6.436065 26.721221 5.912039 -1.286884 22.363421 -6.134414 -21.014626 -0.000001 -0.000000 0.000000 0.000000 0.000000 0.000002 -18.263945 -52.340211 -23.947567 6.713099 -0.174643 0.408732 23.635689 30.773410 21.111266 0.000001 -0.000001 0.000002 0.000000 -0.000000 0.000000 2.425885 6.346028 -3.781503 5.199911 12.533868 -7.180045 5.199917 12.533867 -7.180046 -2.786991 -0.584431 -1.367530 -2.786987 -0.584425 -1.367536 0.000000 0.000002 0.000001 -2.787009 -0.584443 -1.367531 -2.787006 -0.584402 -1.367542 0.000000 0.000002 0.000001 0.000000 0.000002 0.000001 -0.973352 8.134300 -0.577439 15.291948 -52.081108 12.433034 -39.302524 -105.594376 -27.508385 34.636354 19.982613 65.475792 -40.240551 -15.214009 -52.995865 2.207714 4.728368 -0.343142 0.000003 0.000001 -0.000002 5.557439 5.146086 -55.749913 -3.450212 3.964200 -44.738292 0.000000 0.000000 -0.000000 -2.692246 1.622301 -64.058008 -9.175223 -2.193579 -46.604150 0.000001 -0.000000 -0.000003 -9.281399 -0.251432 -48.307616 -19.372839 5.858529 -76.510222 0.000000 0.000000 0.000001 -21.901797 -5.413578 -73.040144 -19.440561 -6.083748 -37.482405 0.000000 -0.000001 0.000002 0.000000 -0.000000 0.000000 0.000000 -0.000000 0.000000 0.000000 -0.000000 0.000000 0.000000 -0.000000 -0.000000 0.000000 -0.000000 -0.000000 0.000000 -0.000000 -0.000000 0.000000 -0.000000 -0.000000 3.911042 22.045300 -8.396952 -84.429471 30.178781 45.241387 -0.003021 14.772755 -0.003963 7.447661 0.382001 6.782736 -31.617748 13.828939 43.552046 0.473484 -3.302562 2.961682 0.000002 0.000000 -0.000000 2.891350 -0.128648 -24.170723 2.281680 -3.534433 22.562806 0.000002 -0.000002 -0.000001 -0.023027 -9.865705 -20.454036 -4.194776 4.011695 28.113211 -0.000002 0.000004 0.000000 -3.449588 -13.465522 -18.849119 -11.556665 4.629602 38.639565 -0.000001 -0.000000 0.000001 0.189082 1.083254 16.179521 -12.037547 8.914448 20.578096 0.000001 0.000001 -0.000000 -0.000003 0.000001 -0.000001 -0.000003 0.000001 -0.000001 -0.000003 0.000001 -0.000002 0.000001 -0.000002 0.000000 0.000001 -0.000002 0.000000 0.000001 -0.000002 0.000000 0.000001 -0.000002 0.000000 0.000000 0.000002 0.000001 0.000000 0.000002 0.000000 0.000000 0.000002 0.000001 0.000000 0.000002 0.000001 0.000000 0.000002 0.000001 0.000000 0.000002 0.000001 0.000000 0.000002 0.000000 -0.000000 0.000001 0.000000 -0.000000 0.000001 0.000000 
